<?xml version="1.0" encoding="utf-8"?>
<!-- Generator: Adobe Illustrator 25.0.1, SVG Export Plug-In . SVG Version: 6.00 Build 0)  -->
<svg version="1.1" id="Layer_1" xmlns="http://www.w3.org/2000/svg" xmlns:xlink="http://www.w3.org/1999/xlink" x="0px" y="0px"
	 viewBox="0 0 4000 4000" style="enable-background:new 0 0 4000 4000;" xml:space="preserve">
<style type="text/css">
	.st0{fill:#CEEDFF;}
	.st1{fill:#0871F7;}
	.st2{fill:#2D02A7;}
	.st3{fill:#FFFFFF;}
	.st4{fill:#25BEEF;}
	.st5{fill:#D4EDFA;}
	.st6{fill:#8EDB53;}
</style>
<g>
	<path class="st0" d="M792.35,1700.3c12.12-4.29,20.86-15.82,23.18-29.15c11.35-65.02,65.25-114.27,130.02-114.27
		c38.17,0,72.43,17.19,96.49,44.6c15.95,18.17,38.22,27.54,61.56,25.61c10.39-0.86,21.3,0.1,32.61,3.37
		c39.02,11.29,68.09,45.39,73.01,87.96c7.38,63.83-39.51,118.1-98.4,118.1c-30.45,0-130.52,0-165.27,0H816.03
		c-31.91,0-61.38-22.61-67.51-55.82C741.74,1743.96,762.21,1710.96,792.35,1700.3z"/>
</g>
<path class="st1" d="M753.95,2299.69c-16.45-89.12,33.18-169.14,106.27-194.98c29.4-10.4,50.57-38.37,56.22-70.68
	c27.53-157.66,158.21-277.08,315.26-277.08h-98.46c-157.05,0-287.73,119.42-315.27,277.08c-5.64,32.31-26.81,60.28-56.21,70.68
	c-73.09,25.84-122.72,105.86-106.27,194.98c14.86,80.52,86.32,135.35,163.69,135.35h98.45
	C840.27,2435.05,768.81,2380.21,753.95,2299.69z"/>
<g>
	<g>
		<g>
			<path class="st1" d="M1642.1,3100.83c-11.16,0-20.25-9.07-20.25-20.22c0-11.17,9.09-20.25,20.25-20.25
				c11.16,0,20.25,9.07,20.25,20.25C1662.34,3091.76,1653.26,3100.83,1642.1,3100.83z M1642.1,3066.91c-7.55,0-13.7,6.14-13.7,13.7
				c0,7.54,6.15,13.68,13.7,13.68c7.55,0,13.7-6.14,13.7-13.68C1655.8,3073.05,1649.65,3066.91,1642.1,3066.91z"/>
		</g>
		<g>
			<path class="st1" d="M1642.1,3066.91c-1.8,0-3.27-1.46-3.27-3.27V2147.8c0-1.8,1.47-3.27,3.27-3.27c1.8,0,3.27,1.47,3.27,3.27
				v915.84C1645.37,3065.45,1643.9,3066.91,1642.1,3066.91z"/>
		</g>
		<g>
			<path class="st1" d="M1506.33,2849.19c-1.8,0-3.27-1.46-3.27-3.27v-221.73c0-1.81,1.47-3.27,3.27-3.27c1.8,0,3.27,1.46,3.27,3.27
				v221.73C1509.61,2847.74,1508.14,2849.19,1506.33,2849.19z"/>
		</g>
		<g>
			<path class="st1" d="M1574.22,2660.59c-1.8,0-3.27-1.46-3.27-3.27v-337.58c0-1.81,1.47-3.27,3.27-3.27c1.8,0,3.27,1.46,3.27,3.27
				v337.58C1577.49,2659.14,1576.02,2660.59,1574.22,2660.59z"/>
		</g>
		<g>
			<path class="st1" d="M1981.22,3168.8c-0.84,0-1.67-0.31-2.31-0.95l-67.88-67.87c-0.61-0.61-0.96-1.46-0.96-2.33V2147.8
				c0-1.8,1.47-3.27,3.27-3.27c1.8,0,3.27,1.47,3.27,3.27v948.51l66.92,66.9c1.28,1.28,1.28,3.37,0,4.65
				C1982.9,3168.5,1982.07,3168.8,1981.22,3168.8z"/>
		</g>
		<g>
			<path class="st1" d="M1709.98,2662.33c-1.8,0-3.27,1.46-3.27,3.27v430.35l-55.38,55.36c1.86,1.24,3.39,2.78,4.64,4.64
				l56.33-56.32c0.61-0.61,0.96-1.46,0.96-2.33v-431.7C1713.25,2663.79,1711.78,2662.33,1709.98,2662.33z"/>
			<path class="st1" d="M1642.1,3185.42c-11.16,0-20.25-9.07-20.25-20.25s9.09-20.25,20.25-20.25c11.16,0,20.25,9.07,20.25,20.25
				S1653.26,3185.42,1642.1,3185.42z M1642.1,3151.47c-7.55,0-13.7,6.14-13.7,13.7c0,7.57,6.15,13.7,13.7,13.7
				c7.55,0,13.7-6.14,13.7-13.7C1655.8,3157.61,1649.65,3151.47,1642.1,3151.47z"/>
		</g>
		<path class="st1" d="M1849.01,2769.44V2147.8c0-1.8-1.47-3.27-3.27-3.27c-1.8,0-3.27,1.47-3.27,3.27v621.64
			c-9.54,1.62-16.97,9.57-16.97,19.58c0,11.17,9.09,20.25,20.25,20.25s20.23-9.07,20.23-20.25
			C1865.97,2779.01,1858.55,2771.06,1849.01,2769.44z M1845.74,2802.72c-7.55,0-13.7-6.14-13.7-13.7c0-7.57,6.15-13.7,13.7-13.7
			c7.55,0,13.69,6.14,13.69,13.7C1859.43,2796.59,1853.3,2802.72,1845.74,2802.72z"/>
		<circle class="st1" cx="1709.98" cy="2648.89" r="20.25"/>
		<circle class="st1" cx="2252.75" cy="2391.16" r="20.25"/>
		<circle class="st1" cx="1642.1" cy="2851.39" r="20.25"/>
		<path class="st1" d="M1713.25,2562.92V2147.8c0-1.8-1.47-3.27-3.27-3.27c-1.8,0-3.27,1.47-3.27,3.27v415.12
			c-9.54,1.62-16.97,9.57-16.97,19.58c0,11.17,9.09,20.25,20.25,20.25c11.16,0,20.25-9.07,20.25-20.25
			C1730.22,2572.49,1722.8,2564.54,1713.25,2562.92z M1709.98,2596.2c-7.55,0-13.7-6.14-13.7-13.7c0-7.57,6.15-13.7,13.7-13.7
			c7.55,0,13.7,6.14,13.7,13.7C1723.68,2590.07,1717.53,2596.2,1709.98,2596.2z"/>
		<g>
			<path class="st1" d="M1981.22,2805.25c-11.16,0-20.25-9.07-20.25-20.25c0-11.17,9.09-20.25,20.25-20.25
				c11.16,0,20.25,9.07,20.25,20.25C2001.47,2796.18,1992.38,2805.25,1981.22,2805.25z M1981.22,2771.31
				c-7.55,0-13.7,6.14-13.7,13.7c0,7.57,6.15,13.7,13.7,13.7c7.55,0,13.7-6.14,13.7-13.7
				C1994.92,2777.44,1988.78,2771.31,1981.22,2771.31z"/>
		</g>
		<g>
			<path class="st1" d="M1777.86,2144.52c-1.8,0-3.27,1.47-3.27,3.27v964.85l-123.26,123.25c1.86,1.24,3.39,2.78,4.64,4.64
				l124.21-124.21c0.61-0.61,0.96-1.46,0.96-2.33v-966.2C1781.13,2145.99,1779.66,2144.52,1777.86,2144.52z"/>
			<path class="st1" d="M1642.1,3270.01c-11.16,0-20.25-9.07-20.25-20.25c0-11.17,9.09-20.25,20.25-20.25
				c11.16,0,20.25,9.07,20.25,20.25C1662.34,3260.93,1653.26,3270.01,1642.1,3270.01z M1642.1,3236.06c-7.55,0-13.7,6.14-13.7,13.7
				c0,7.57,6.15,13.7,13.7,13.7c7.55,0,13.7-6.14,13.7-13.7C1655.8,3242.19,1649.65,3236.06,1642.1,3236.06z"/>
		</g>
		<path class="st1" d="M1642.1,3354.59c-11.16,0-20.25-9.07-20.25-20.25c0-11.17,9.09-20.25,20.25-20.25
			c11.16,0,20.25,9.07,20.25,20.25C1662.34,3345.52,1653.26,3354.59,1642.1,3354.59z M1642.1,3320.65c-7.55,0-13.7,6.14-13.7,13.7
			c0,7.57,6.15,13.7,13.7,13.7c7.55,0,13.7-6.14,13.7-13.7C1655.8,3326.78,1649.65,3320.65,1642.1,3320.65z"/>
		<path class="st1" d="M1642.1,3439.18c-11.16,0-20.25-9.07-20.25-20.25s9.09-20.25,20.25-20.25c11.16,0,20.25,9.07,20.25,20.25
			S1653.26,3439.18,1642.1,3439.18z M1642.1,3405.23c-7.55,0-13.7,6.14-13.7,13.7c0,7.57,6.15,13.7,13.7,13.7
			c7.55,0,13.7-6.14,13.7-13.7C1655.8,3411.37,1649.65,3405.23,1642.1,3405.23z"/>
		<path class="st1" d="M1984.5,3450.32v-648.6c0-1.81-1.47-3.27-3.27-3.27c-1.8,0-3.27,1.46-3.27,3.27v648.6
			c-9.54,1.62-16.97,9.57-16.97,19.58c0,11.17,9.09,20.25,20.25,20.25c11.16,0,20.25-9.07,20.25-20.25
			C2001.47,3459.9,1994.04,3451.95,1984.5,3450.32z"/>
		<g>
			<path class="st1" d="M2184.85,3651.63c-11.15,0-20.22-9.07-20.22-20.25s9.07-20.25,20.22-20.25c11.17,0,20.25,9.07,20.25,20.25
				S2196.03,3651.63,2184.85,3651.63z M2184.85,3617.68c-7.54,0-13.68,6.14-13.68,13.7c0,7.57,6.14,13.7,13.68,13.7
				c7.57,0,13.7-6.14,13.7-13.7C2198.56,3623.82,2192.42,3617.68,2184.85,3617.68z"/>
		</g>
		<g>
			<path class="st1" d="M1913.61,3716.58c-11.16,0-20.23-9.07-20.23-20.25s9.07-20.25,20.23-20.25c11.16,0,20.25,9.07,20.25,20.25
				S1924.77,3716.58,1913.61,3716.58z M1913.61,3682.64c-7.55,0-13.69,6.14-13.69,13.7c0,7.57,6.14,13.7,13.69,13.7
				c7.55,0,13.7-6.14,13.7-13.7C1927.31,3688.77,1921.16,3682.64,1913.61,3682.64z"/>
		</g>
		<g>
			<path class="st1" d="M1916.61,3331.25v-132.38c0-0.87-0.35-1.69-0.96-2.3l-56.17-56.19c-1.26,1.84-2.8,3.35-4.67,4.56
				l55.25,55.28v131.14c-9.41,1.74-16.69,9.62-16.69,19.53c0,10.01,7.42,17.96,16.96,19.58v164.39c0,1.81,1.47,3.27,3.27,3.27
				c1.8,0,3.27-1.46,3.27-3.27v-164.39c9.54-1.62,16.97-9.57,16.97-19.58C1933.86,3340.78,1926.29,3332.76,1916.61,3331.25z
				 M1913.61,3364.59c-7.55,0-13.69-6.14-13.69-13.7c0-7.57,6.14-13.7,13.69-13.7c7.55,0,13.7,6.14,13.7,13.7
				C1927.31,3358.45,1921.16,3364.59,1913.61,3364.59z"/>
			<path class="st1" d="M1831.76,3140.05l-180.43,180.43c1.86,1.25,3.39,2.78,4.64,4.64l180.38-180.38
				C1834.5,3143.47,1832.98,3141.92,1831.76,3140.05z"/>
			<g>
				<path class="st1" d="M1842.47,2881.22l-0.19,233.48c1.15-0.25,2.23-0.7,3.45-0.7c1.1,0,2.05,0.43,3.09,0.62l0.19-234.76
					c0-0.87-0.35-1.69-0.96-2.33l-67.88-67.89c-1.28-1.28-3.35-1.28-4.63,0c-1.28,1.28-1.28,3.37,0,4.65L1842.47,2881.22z"/>
				<path class="st1" d="M1845.74,3147.95c-1.23,0-2.32-0.45-3.48-0.7l-0.05,66.95l-190.88,190.86c1.87,1.24,3.4,2.77,4.64,4.64
					l191.82-191.82c0.61-0.61,0.96-1.46,0.96-2.33l0.05-68.23C1847.77,3147.53,1846.82,3147.95,1845.74,3147.95z"/>
			</g>
			<path class="st1" d="M1845.74,3151.22c-11.16,0-20.25-9.07-20.25-20.25c0-11.17,9.09-20.25,20.25-20.25s20.23,9.07,20.23,20.25
				C1865.97,3142.14,1856.9,3151.22,1845.74,3151.22z M1845.74,3117.27c-7.55,0-13.7,6.14-13.7,13.7c0,7.57,6.15,13.7,13.7,13.7
				c7.55,0,13.69-6.14,13.69-13.7C1859.43,3123.4,1853.3,3117.27,1845.74,3117.27z"/>
		</g>
		<g>
			<path class="st1" d="M1726.68,3741.33c-0.84,0-1.67-0.31-2.31-0.95c-1.28-1.28-1.28-3.37,0-4.65l86.99-86.99
				c1.28-1.28,3.35-1.28,4.63,0c1.28,1.28,1.28,3.37,0,4.65l-86.99,86.99C1728.36,3741.02,1727.53,3741.33,1726.68,3741.33z"/>
		</g>
		<g>
			<path class="st1" d="M2388.51,3741.33c-0.84,0-1.69-0.31-2.33-0.95l-69.79-69.79c-1.25-1.28-1.25-3.37,0-4.65
				c1.28-1.28,3.37-1.28,4.65,0l69.79,69.79c1.25,1.28,1.25,3.37,0,4.65C2390.2,3741.02,2389.36,3741.33,2388.51,3741.33z"/>
		</g>
		<g>
			<path class="st1" d="M1506.31,3005.48c-0.84,0-1.67-0.31-2.31-0.95c-1.28-1.28-1.28-3.37,0-4.65l69.79-69.79
				c1.28-1.28,3.35-1.28,4.63,0c1.28,1.28,1.28,3.37,0,4.65l-69.79,69.79C1507.98,3005.18,1507.15,3005.48,1506.31,3005.48z"/>
		</g>
		<g>
			<path class="st1" d="M1506.31,2940.12c-0.84,0-1.67-0.31-2.31-0.95c-1.28-1.28-1.28-3.37,0-4.65l69.79-69.79
				c1.28-1.28,3.35-1.28,4.63,0c1.28,1.28,1.28,3.37,0,4.65l-69.79,69.79C1507.98,2939.81,1507.15,2940.12,1506.31,2940.12z"/>
		</g>
		<path class="st1" d="M2188.13,3331.38v-46.06c9.55-1.62,16.97-9.57,16.97-19.58c0-11.17-9.07-20.25-20.25-20.25
			c-11.15,0-20.22,9.07-20.22,20.25c0,10.01,7.42,17.96,16.95,19.58v46.06c-9.53,1.62-16.95,9.57-16.95,19.58
			c0,11.17,9.07,20.25,20.22,20.25c11.17,0,20.25-9.07,20.25-20.25C2205.1,3340.95,2197.68,3333,2188.13,3331.38z M2171.18,3265.74
			c0-7.57,6.14-13.7,13.68-13.7c7.57,0,13.7,6.14,13.7,13.7c0,7.57-6.14,13.7-13.7,13.7
			C2177.31,3279.44,2171.18,3273.3,2171.18,3265.74z M2184.85,3364.66c-7.54,0-13.68-6.14-13.68-13.7c0-7.57,6.14-13.7,13.68-13.7
			c7.57,0,13.7,6.14,13.7,13.7C2198.56,3358.53,2192.42,3364.66,2184.85,3364.66z"/>
		<g>
			<path class="st1" d="M2049.1,2805.25c-11.16,0-20.25-9.07-20.25-20.25c0-11.17,9.09-20.25,20.25-20.25
				c11.16,0,20.25,9.07,20.25,20.25C2069.35,2796.18,2060.26,2805.25,2049.1,2805.25z M2049.1,2771.31c-7.55,0-13.7,6.14-13.7,13.7
				c0,7.57,6.15,13.7,13.7,13.7s13.7-6.14,13.7-13.7C2062.81,2777.44,2056.66,2771.31,2049.1,2771.31z"/>
		</g>
		<path class="st1" d="M2120.26,2765.42v-226.76c9.55-1.62,16.97-9.57,16.97-19.58s-7.42-17.96-16.97-19.58v-351.7
			c0-1.8-1.46-3.27-3.27-3.27s-3.27,1.47-3.27,3.27v351.7c-9.55,1.62-16.97,9.57-16.97,19.58s7.42,17.96,16.97,19.58v226.76
			c-9.55,1.62-16.97,9.57-16.97,19.58c0,11.17,9.07,20.25,20.25,20.25s20.25-9.07,20.25-20.25
			C2137.23,2775,2129.81,2767.04,2120.26,2765.42z M2116.99,2798.71c-7.57,0-13.7-6.14-13.7-13.7c0-7.57,6.14-13.7,13.7-13.7
			c7.57,0,13.7,6.14,13.7,13.7C2130.69,2792.57,2124.55,2798.71,2116.99,2798.71z"/>
		<g>
			<path class="st1" d="M2049.1,2771.31c-1.8,0-3.27-1.46-3.27-3.27V2147.8c0-1.8,1.47-3.27,3.27-3.27c1.8,0,3.27,1.47,3.27,3.27
				v620.24C2052.38,2769.85,2050.91,2771.31,2049.1,2771.31z"/>
		</g>
		<g>
			<path class="st1" d="M2252.75,3422.21c-1.81,0-3.27-1.46-3.27-3.27V2147.8c0-1.8,1.46-3.27,3.27-3.27s3.27,1.47,3.27,3.27
				v1271.14C2256.02,3420.75,2254.56,3422.21,2252.75,3422.21z"/>
		</g>
		<path class="st1" d="M1984.5,2373.6V2147.8c0-1.8-1.47-3.27-3.27-3.27c-1.8,0-3.27,1.47-3.27,3.27v225.81
			c-9.54,1.62-16.97,9.57-16.97,19.58c0,11.17,9.09,20.25,20.25,20.25c11.16,0,20.25-9.07,20.25-20.25
			C2001.47,2383.18,1994.04,2375.23,1984.5,2373.6z M1981.22,2406.89c-7.55,0-13.7-6.14-13.7-13.7c0-7.57,6.15-13.7,13.7-13.7
			c7.55,0,13.7,6.14,13.7,13.7C1994.92,2400.75,1988.78,2406.89,1981.22,2406.89z"/>
		<g>
			<path class="st1" d="M2456.38,3490.25c-1.81,0-3.27-1.46-3.27-3.27v-346.76c0-1.81,1.46-3.27,3.27-3.27s3.27,1.46,3.27,3.27
				v346.76C2459.65,3488.8,2458.2,3490.25,2456.38,3490.25z"/>
		</g>
		<g>
			<path class="st1" d="M2526.17,3240.53c-1.81,0-3.27-1.46-3.27-3.27v-248.95l-68.84-68.81c-0.61-0.61-0.95-1.46-0.95-2.33v-361.05
				c0-1.82,1.46-3.27,3.27-3.27s3.27,1.46,3.27,3.27v359.69l68.84,68.81c0.61,0.61,0.95,1.46,0.95,2.33v250.31
				C2529.44,3239.08,2527.98,3240.53,2526.17,3240.53z"/>
		</g>
		<g>
			<path class="st1" d="M2526.17,2599.75c-1.81,0-3.27-1.46-3.27-3.27V2346.2c0-1.81,1.46-3.27,3.27-3.27s3.27,1.46,3.27,3.27
				v250.28C2529.44,2598.3,2527.98,2599.75,2526.17,2599.75z"/>
		</g>
		<path class="st1" d="M1984.5,2499.5v-20.35c9.54-1.62,16.97-9.57,16.97-19.58c0-11.17-9.09-20.25-20.25-20.25
			c-11.16,0-20.25,9.07-20.25,20.25c0,10.01,7.43,17.96,16.97,19.58v20.35c-15.91,1.72-28.5,14.76-28.5,31.11v116.97
			c0,16.35,12.59,29.39,28.5,31.11v20.32c-9.54,1.62-16.97,9.57-16.97,19.58c0,11.17,9.09,20.25,20.25,20.25
			c11.16,0,20.25-9.07,20.25-20.25c0-10.01-7.43-17.96-16.97-19.58v-20.32c15.91-1.72,28.5-14.76,28.5-31.11v-116.97
			C2013,2514.25,2000.41,2501.22,1984.5,2499.5z M1967.52,2459.57c0-7.57,6.15-13.7,13.7-13.7c7.55,0,13.7,6.14,13.7,13.7
			c0,7.57-6.15,13.7-13.7,13.7C1973.67,2473.27,1967.52,2467.14,1967.52,2459.57z M1994.92,2718.6c0,7.57-6.15,13.7-13.7,13.7
			c-7.55,0-13.7-6.14-13.7-13.7c0-7.57,6.15-13.7,13.7-13.7C1988.78,2704.89,1994.92,2711.03,1994.92,2718.6z M2006.45,2647.58
			c0,13.91-11.32,25.23-25.23,25.23c-13.91,0-25.23-11.32-25.23-25.23v-116.97c0-13.91,11.32-25.23,25.23-25.23
			c13.91,0,25.23,11.32,25.23,25.23V2647.58z"/>
		<g>
			<path class="st1" d="M2320.62,2937.87c-11.17,0-20.25-9.07-20.25-20.25c0-11.15,9.07-20.22,20.25-20.22s20.25,9.07,20.25,20.22
				C2340.86,2928.8,2331.79,2937.87,2320.62,2937.87z M2320.62,2903.95c-7.57,0-13.7,6.14-13.7,13.68c0,7.57,6.14,13.7,13.7,13.7
				c7.57,0,13.7-6.14,13.7-13.7C2334.32,2910.08,2328.18,2903.95,2320.62,2903.95z"/>
		</g>
		<path class="st1" d="M2323.89,2506.22V2147.8c0-1.8-1.46-3.27-3.27-3.27s-3.27,1.47-3.27,3.27v358.42
			c-9.55,1.62-16.97,9.57-16.97,19.58c0,11.17,9.07,20.25,20.25,20.25s20.25-9.07,20.25-20.25
			C2340.86,2515.79,2333.44,2507.84,2323.89,2506.22z M2320.62,2539.5c-7.57,0-13.7-6.14-13.7-13.7c0-7.57,6.14-13.7,13.7-13.7
			c7.57,0,13.7,6.14,13.7,13.7C2334.32,2533.37,2328.18,2539.5,2320.62,2539.5z"/>
		<path class="st1" d="M2323.89,2632.14v-20.34c9.55-1.62,16.97-9.57,16.97-19.58c0-11.17-9.07-20.25-20.25-20.25
			s-20.25,9.07-20.25,20.25c0,10.01,7.42,17.96,16.97,19.58v20.34c-15.9,1.72-28.5,14.76-28.5,31.11v116.95
			c0,16.35,12.6,29.39,28.5,31.11v20.34c-9.55,1.62-16.97,9.57-16.97,19.58c0,11.17,9.07,20.25,20.25,20.25s20.25-9.07,20.25-20.25
			c0-10.01-7.42-17.96-16.97-19.58v-20.34c15.9-1.72,28.5-14.76,28.5-31.11v-116.95C2352.39,2646.9,2339.79,2633.86,2323.89,2632.14
			z M2306.92,2592.21c0-7.57,6.14-13.7,13.7-13.7c7.57,0,13.7,6.14,13.7,13.7c0,7.57-6.14,13.7-13.7,13.7
			C2313.05,2605.92,2306.92,2599.78,2306.92,2592.21z M2334.32,2851.24c0,7.57-6.14,13.7-13.7,13.7c-7.57,0-13.7-6.14-13.7-13.7
			c0-7.57,6.14-13.7,13.7-13.7C2328.18,2837.54,2334.32,2843.67,2334.32,2851.24z M2345.85,2780.2c0,13.91-11.32,25.23-25.23,25.23
			s-25.23-11.32-25.23-25.23v-116.95c0-13.91,11.32-25.23,25.23-25.23s25.23,11.32,25.23,25.23V2780.2z"/>
		<path class="st1" d="M2120.05,3331.26l0.2-134.85c9.56-1.62,16.98-9.57,16.98-19.58c0-11.17-9.07-20.25-20.25-20.25
			s-20.25,9.07-20.25,20.25c0,10.01,7.42,17.96,16.97,19.58l-0.2,134.93c-9.45,1.71-16.77,9.6-16.77,19.54
			c0,11.17,9.07,20.25,20.25,20.25s20.25-9.07,20.25-20.25C2137.23,3340.8,2129.71,3332.79,2120.05,3331.26z M2103.28,3176.83
			c0-7.57,6.14-13.7,13.7-13.7c7.57,0,13.7,6.14,13.7,13.7c0,7.57-6.14,13.7-13.7,13.7
			C2109.42,3190.53,2103.28,3184.4,2103.28,3176.83z M2116.99,3364.59c-7.57,0-13.7-6.14-13.7-13.7c0-7.57,6.14-13.7,13.7-13.7
			c7.57,0,13.7,6.14,13.7,13.7C2130.69,3358.45,2124.55,3364.59,2116.99,3364.59z"/>
		<path class="st1" d="M2388.51,2144.52c-1.81,0-3.27,1.47-3.27,3.27v1267.87h-45.04c-1.62-9.55-9.57-16.97-19.58-16.97
			s-17.96,7.42-19.58,16.97h-48.28c-1.81,0-3.27,1.46-3.27,3.27s1.46,3.27,3.27,3.27h48.28c1.62,9.55,9.57,16.97,19.58,16.97
			s17.96-7.42,19.58-16.97h48.31c1.81,0,3.27-1.46,3.27-3.27V2147.8C2391.78,2145.99,2390.33,2144.52,2388.51,2144.52z
			 M2320.62,3432.64c-7.57,0-13.7-6.14-13.7-13.7c0-7.57,6.14-13.7,13.7-13.7c7.57,0,13.7,6.14,13.7,13.7
			C2334.32,3426.5,2328.18,3432.64,2320.62,3432.64z"/>
		<path class="st1" d="M2320.62,3314.1c-10.01,0-17.96,7.42-19.58,16.97h-48.28c-1.81,0-3.27,1.46-3.27,3.27s1.46,3.27,3.27,3.27
			h48.28c1.62,9.55,9.57,16.97,19.58,16.97c11.17,0,20.25-9.07,20.25-20.25C2340.86,3323.18,2331.79,3314.1,2320.62,3314.1z"/>
		<g>
			<path class="st1" d="M2320.62,3253.03h-67.87c-1.81,0-3.27-1.46-3.27-3.27s1.46-3.27,3.27-3.27h64.6V2934.6
				c0-1.81,1.46-3.27,3.27-3.27s3.27,1.46,3.27,3.27v315.16C2323.89,3251.58,2322.43,3253.03,2320.62,3253.03z"/>
		</g>
		<g>
			<path class="st1" d="M2184.85,3180.1h-50.9c-1.81,0-3.27-1.46-3.27-3.27s1.46-3.27,3.27-3.27h47.62V2147.8
				c0-1.8,1.46-3.27,3.27-3.27s3.27,1.47,3.27,3.27v1029.03C2188.13,3178.65,2186.67,3180.1,2184.85,3180.1z"/>
		</g>
		<path class="st1" d="M2052.14,3399.3l0.23-202.89c9.55-1.62,16.98-9.57,16.98-19.58c0-11.17-9.09-20.25-20.25-20.25
			c-11.16,0-20.25,9.07-20.25,20.25c0,10.01,7.43,17.96,16.97,19.58l-0.23,202.99c-9.43,1.72-16.74,9.61-16.74,19.54
			c0,10.01,7.43,17.96,16.97,19.58v130.37c0,1.81,1.47,3.27,3.27,3.27c1.8,0,3.27-1.46,3.27-3.27v-130.37
			c9.54-1.62,16.97-9.57,16.97-19.58C2069.35,3408.84,2061.8,3400.83,2052.14,3399.3z M2035.4,3176.83c0-7.57,6.15-13.7,13.7-13.7
			s13.7,6.14,13.7,13.7c0,7.57-6.15,13.7-13.7,13.7S2035.4,3184.4,2035.4,3176.83z M2049.1,3432.64c-7.55,0-13.7-6.14-13.7-13.7
			c0-7.57,6.15-13.7,13.7-13.7s13.7,6.14,13.7,13.7C2062.81,3426.5,2056.66,3432.64,2049.1,3432.64z"/>
		<g>
			<path class="st1" d="M1981.22,3776.32c-1.8,0-3.27-1.46-3.27-3.27v-30.91c0-1.81,1.47-3.27,3.27-3.27c1.8,0,3.27,1.46,3.27,3.27
				v30.91C1984.5,3774.87,1983.03,3776.32,1981.22,3776.32z"/>
		</g>
		<g>
			<path class="st1" d="M2388.51,3584.71c-1.81,0-3.27-1.46-3.27-3.27v-30.93c0-1.82,1.46-3.27,3.27-3.27s3.27,1.46,3.27,3.27v30.93
				C2391.78,3583.25,2390.33,3584.71,2388.51,3584.71z"/>
		</g>
		<g>
			<path class="st1" d="M1981.22,3708.28c-1.8,0-3.27-1.46-3.27-3.27v-167.03c0-1.81,1.47-3.27,3.27-3.27c1.8,0,3.27,1.46,3.27,3.27
				V3705C1984.5,3706.82,1983.03,3708.28,1981.22,3708.28z"/>
		</g>
		<g>
			<path class="st1" d="M1726.68,3538.13c-1.8,0-3.27-1.46-3.27-3.27v-64.93c0-1.81,1.47-3.27,3.27-3.27s3.27,1.46,3.27,3.27v64.93
				C1729.96,3536.67,1728.49,3538.13,1726.68,3538.13z"/>
		</g>
		<g>
			<path class="st1" d="M2049.1,3826.91c-1.8,0-3.27-1.46-3.27-3.27v-64.93c0-1.81,1.47-3.27,3.27-3.27c1.8,0,3.27,1.46,3.27,3.27
				v64.93C2052.38,3825.46,2050.91,3826.91,2049.1,3826.91z"/>
		</g>
		<g>
			<path class="st1" d="M1642.1,3606.21c-1.8,0-3.27-1.46-3.27-3.27v-98.98c0-1.81,1.47-3.27,3.27-3.27c1.8,0,3.27,1.46,3.27,3.27
				v98.98C1645.37,3604.75,1643.9,3606.21,1642.1,3606.21z"/>
		</g>
		<g>
			<path class="st1" d="M1576.09,3257.99c-1.8,0-3.27-1.46-3.27-3.27v-98.95c0-1.81,1.47-3.27,3.27-3.27s3.27,1.46,3.27,3.27v98.95
				C1579.37,3256.53,1577.9,3257.99,1576.09,3257.99z"/>
		</g>
		<g>
			<path class="st1" d="M2388.51,3675.99c-0.84,0-1.71-0.33-2.35-1l-67.89-69.79c-0.59-0.61-0.92-1.43-0.92-2.28v-98.98
				c0-1.81,1.46-3.27,3.27-3.27s3.27,1.46,3.27,3.27v97.65l66.97,68.84c1.25,1.28,1.23,3.35-0.08,4.63
				C2390.15,3675.68,2389.33,3675.99,2388.51,3675.99z"/>
		</g>
		<g>
			<path class="st1" d="M2388.51,3527.01c-1.81,0-3.27-1.46-3.27-3.27v-64.95c0-1.81,1.46-3.27,3.27-3.27s3.27,1.46,3.27,3.27v64.95
				C2391.78,3525.56,2390.33,3527.01,2388.51,3527.01z"/>
		</g>
		<path class="st1" d="M2069.35,3614.44c0-11.17-9.09-20.25-20.25-20.25c-11.16,0-20.25,9.07-20.25,20.25
			c0,10.01,7.43,17.96,16.97,19.58v96.35c0,1.81,1.47,3.27,3.27,3.27c1.8,0,3.27-1.46,3.27-3.27v-96.35
			C2061.92,3632.39,2069.35,3624.44,2069.35,3614.44z M2049.1,3628.14c-7.55,0-13.7-6.14-13.7-13.7c0-7.57,6.15-13.7,13.7-13.7
			s13.7,6.14,13.7,13.7C2062.81,3622,2056.66,3628.14,2049.1,3628.14z"/>
		<path class="st1" d="M1865.97,3299.76c0-11.17-9.07-20.25-20.23-20.25s-20.25,9.07-20.25,20.25c0,4.41,1.71,8.28,4.12,11.61
			l-91.39,91.39c-3.31-2.38-7.15-4.07-11.54-4.07c-11.16,0-20.25,9.07-20.25,20.25s9.09,20.25,20.25,20.25s20.23-9.07,20.23-20.25
			c0-4.38-1.69-8.22-4.06-11.54l91.41-91.41c3,2.13,6.44,3.56,10.33,3.79v61.85l-21.64,21.24c-3.35-2.44-7.25-4.18-11.71-4.18
			c-11.16,0-20.23,9.07-20.23,20.25c0,10.01,7.42,17.96,16.96,19.58v128.99l-83.59,82.08c-1.29,1.25-1.32,3.32-0.05,4.63
			c0.64,0.64,1.5,0.97,2.34,0.97c0.83,0,1.66-0.31,2.29-0.95l84.57-83.03c0.63-0.61,0.98-1.46,0.98-2.33v-130.37
			c9.54-1.62,16.97-9.57,16.97-19.58c0-4.32-1.66-8.11-3.97-11.4l22.63-22.21c0.36-0.35,0.43-0.89,0.59-1.38
			c0.11-0.33,0.38-0.59,0.38-0.93c0-0.01,0.01-0.01,0.01-0.02v-64.08C1859.63,3316.5,1865.97,3309.01,1865.97,3299.76z
			 M1726.68,3432.64c-7.55,0-13.7-6.14-13.7-13.7c0-7.57,6.15-13.7,13.7-13.7s13.69,6.14,13.69,13.7
			C1740.37,3426.5,1734.24,3432.64,1726.68,3432.64z M1811.26,3432.64c-7.55,0-13.69-6.14-13.69-13.7c0-7.57,6.14-13.7,13.69-13.7
			s13.7,6.14,13.7,13.7C1824.96,3426.5,1818.81,3432.64,1811.26,3432.64z"/>
		<g>
			<path class="st1" d="M2116.73,3606.21c-1.81,0-3.27-1.46-3.27-3.27v-201.05c0-1.81,1.46-3.27,3.27-3.27s3.27,1.46,3.27,3.27
				v201.05C2120,3604.75,2118.55,3606.21,2116.73,3606.21z"/>
		</g>
		<g>
			<path class="st1" d="M2252.75,3640.23c-1.81,0-3.27-1.46-3.27-3.27v-218.02c0-1.81,1.46-3.27,3.27-3.27s3.27,1.46,3.27,3.27
				v218.02C2256.02,3638.77,2254.56,3640.23,2252.75,3640.23z"/>
		</g>
		<g>
			<path class="st1" d="M1913.34,3628.16c-1.8,0-3.27-1.46-3.27-3.27v-64.93c0-1.81,1.47-3.27,3.27-3.27c1.8,0,3.27,1.46,3.27,3.27
				v64.93C1916.61,3626.71,1915.14,3628.16,1913.34,3628.16z"/>
		</g>
		<g>
			<path class="st1" d="M2116.99,3732.18c-1.81,0-3.27-1.46-3.27-3.27v-80.47c0-1.81,1.46-3.27,3.27-3.27s3.27,1.46,3.27,3.27v80.47
				C2120.26,3730.72,2118.8,3732.18,2116.99,3732.18z"/>
		</g>
		<g>
			<path class="st1" d="M2184.85,3572.16c-1.81,0-3.27-1.46-3.27-3.27v-167c0-1.81,1.46-3.27,3.27-3.27s3.27,1.46,3.27,3.27v167
				C2188.13,3570.7,2186.67,3572.16,2184.85,3572.16z"/>
		</g>
		<path class="st1" d="M2120.26,2891.32v-20.34c9.55-1.62,16.97-9.57,16.97-19.58c0-11.17-9.07-20.25-20.25-20.25
			s-20.25,9.07-20.25,20.25c0,10.01,7.42,17.96,16.97,19.58v19.68h-61.34v-19.68c9.54-1.62,16.97-9.57,16.97-19.58
			c0-11.17-9.09-20.25-20.25-20.25c-11.16,0-20.25,9.07-20.25,20.25c0,10.01,7.43,17.96,16.97,19.58v20.35
			c-15.91,1.72-28.5,14.76-28.5,31.11v116.97c0,16.35,12.59,29.39,28.5,31.11v20.35c-9.54,1.62-16.97,9.57-16.97,19.58
			c0,11.15,9.09,20.22,20.25,20.22c11.16,0,20.25-9.07,20.25-20.22c0-10.01-7.43-17.96-16.97-19.58v-19.68h61.34v19.68
			c-9.55,1.62-16.97,9.57-16.97,19.58c0,11.15,9.07,20.22,20.25,20.22s20.25-9.07,20.25-20.22c0-10.01-7.42-17.96-16.97-19.58
			v-20.34c15.9-1.72,28.5-14.76,28.5-31.11v-116.97C2148.76,2906.08,2136.16,2893.04,2120.26,2891.32z M2103.28,2851.39
			c0-7.57,6.14-13.7,13.7-13.7c7.57,0,13.7,6.14,13.7,13.7c0,7.57-6.14,13.7-13.7,13.7
			C2109.42,2865.09,2103.28,2858.96,2103.28,2851.39z M2035.4,2851.39c0-7.57,6.15-13.7,13.7-13.7s13.7,6.14,13.7,13.7
			c0,7.57-6.15,13.7-13.7,13.7S2035.4,2858.96,2035.4,2851.39z M2062.81,3110.44c0,7.54-6.15,13.68-13.7,13.68
			s-13.7-6.14-13.7-13.68c0-7.57,6.15-13.7,13.7-13.7S2062.81,3102.88,2062.81,3110.44z M2130.69,3110.44
			c0,7.54-6.14,13.68-13.7,13.68c-7.57,0-13.7-6.14-13.7-13.68c0-7.57,6.14-13.7,13.7-13.7
			C2124.55,3096.74,2130.69,3102.88,2130.69,3110.44z M2142.22,3039.41c0,13.91-11.32,25.23-25.23,25.23h-67.88
			c-13.91,0-25.23-11.32-25.23-25.23v-116.97c0-13.91,11.32-25.23,25.23-25.23h67.88c13.91,0,25.23,11.32,25.23,25.23V3039.41z"/>
	</g>
	<g>
		<path class="st0" d="M2977.12,1017.16c-54.45-9.94-103.92,15.65-129.42,57.49c-9.39,15.4-25.85,25.36-43.8,23.59
			c-11.21-1.11-23.16,0.18-35.63,4.7c-27.09,9.82-48.1,33.61-53.35,61.94c-9.75,52.71,30.44,98.67,81.38,98.67
			c28.8,0,122.78,0,157.4,0c77.39,0,138.26-70.75,121.46-151.09C3065.11,1064.36,3025.46,1025.99,2977.12,1017.16z"/>
	</g>
	<g>
		<path class="st2" d="M2686.24,903.41h-45.55c-1.42-4.49-5.46-7.8-10.38-7.8c-6.11,0-11.07,4.96-11.07,11.07
			c0,6.11,4.96,11.07,11.07,11.07c4.93,0,8.97-3.31,10.38-7.8h45.55c1.81,0,3.27-1.47,3.27-3.27
			C2689.51,904.88,2688.05,903.41,2686.24,903.41z"/>
		<g>
			<path class="st2" d="M2709.14,1186.78c-1.81,0-3.27-1.47-3.27-3.27V948.96c0-1.8,1.46-3.27,3.27-3.27s3.27,1.47,3.27,3.27v234.55
				C2712.42,1185.31,2710.96,1186.78,2709.14,1186.78z"/>
		</g>
		<g>
			<circle class="st3" cx="2711.55" cy="906.68" r="42.28"/>
			<path class="st2" d="M2711.55,952.23c-25.1,0-45.53-20.44-45.53-45.55s20.42-45.55,45.53-45.55c25.13,0,45.55,20.44,45.55,45.55
				S2736.67,952.23,2711.55,952.23z M2711.55,867.67c-21.5,0-38.98,17.5-38.98,39.01s17.48,39.01,38.98,39.01
				c21.5,0,39.01-17.5,39.01-39.01S2733.04,867.67,2711.55,867.67z"/>
		</g>
		<g>
			<g>
				<path class="st1" d="M2711.55,948.96c-9.35,0-16.93-18.93-16.93-42.27s7.58-42.28,16.93-42.28c-23.35,0-42.28,18.93-42.28,42.28
					S2688.21,948.96,2711.55,948.96z"/>
				<path class="st2" d="M2711.55,952.23c-25.13,0-45.55-20.44-45.55-45.55s20.42-45.55,45.55-45.55c1.81,0,3.27,1.47,3.27,3.27
					c0,1.8-1.46,3.27-3.27,3.27c-6.44,0-13.65,16.68-13.65,39.01s7.21,39.01,13.65,39.01c1.81,0,3.27,1.47,3.27,3.27
					C2714.82,950.76,2713.36,952.23,2711.55,952.23z M2699.48,869.59c-15.62,5.09-26.94,19.8-26.94,37.09s11.32,32,26.94,37.09
					c-5.34-8.79-8.13-23.22-8.13-37.09C2691.35,892.81,2694.14,878.38,2699.48,869.59z"/>
			</g>
		</g>
		<path class="st2" d="M2794.32,895.61c-4.95,0-8.99,3.31-10.41,7.8h-45.55c-1.81,0-3.27,1.47-3.27,3.27c0,1.8,1.46,3.27,3.27,3.27
			h45.55c1.42,4.49,5.46,7.8,10.41,7.8c6.11,0,11.07-4.96,11.07-11.07C2805.39,900.57,2800.43,895.61,2794.32,895.61z"/>
		<path class="st1" d="M2403.95,1583.24c-12.84-69.57,25.9-132.03,82.95-152.2c22.95-8.12,39.47-29.95,43.88-55.17
			c21.49-123.07,123.5-216.29,246.09-216.29h-110.88c-122.6,0-224.6,93.22-246.09,216.29c-4.41,25.22-20.93,47.05-43.88,55.17
			c-57.05,20.18-95.79,82.63-82.95,152.2c11.6,62.85,67.38,105.65,127.78,105.65h110.88
			C2471.33,1688.9,2415.55,1646.09,2403.95,1583.24z"/>
		<polygon class="st4" points="2779.86,648.06 2727.02,648.06 2727.02,542.38 2647.75,674.49 2700.59,674.49 2700.59,780.17 		"/>
		<polygon class="st4" points="2861.99,705.62 2781.14,750.5 2808.61,766.35 2776.89,821.29 2857.74,776.41 2830.27,760.55 		"/>
		<polygon class="st4" points="2638.54,736.77 2611.07,752.62 2579.36,697.69 2577.8,790.14 2605.27,774.29 2636.98,829.22 		"/>
		<g>
			<path class="st3" d="M2486.9,1431.04c22.95-8.12,39.48-29.95,43.88-55.17c21.49-123.07,123.5-216.29,246.09-216.29
				c72.26,0,137.1,32.54,182.64,84.42c30.19,34.39,72.34,52.14,116.52,48.48c19.67-1.63,40.33,0.19,61.72,6.38
				c73.85,21.36,128.87,85.92,138.19,166.5c13.98,120.81-75.76,223.54-187.21,223.54h-557.01c-60.39,0-116.17-42.8-127.77-105.66
				C2391.11,1513.68,2429.85,1451.22,2486.9,1431.04z"/>
			<path class="st2" d="M2531.72,1688.9c-9.28,0-18.36-1.33-27.28-3.27h-83.59c-61.17,0-113.55-43.3-124.57-102.97
				c-12.04-65.26,21.96-127.72,80.83-148.53c23.62-8.36,41.26-30.46,46.01-57.69c21.63-123.75,123.75-213.58,242.87-213.58h72.76
				c12.45-2.02,25.14-3.28,38.12-3.28c1.1,0,2.16,0.17,3.25,0.18c0.03-0.89-0.25-1.75-0.84-2.4c-0.61-0.66-1.48-1.05-2.4-1.05
				h-110.89c-122.29,0-227.15,92.1-249.31,218.99c-4.35,24.91-20.35,45.08-41.77,52.66c-61.91,21.88-97.7,87.44-85.07,155.87
				c11.61,62.78,66.69,108.33,131.01,108.33h315.85c1.71,0,3.14-1.32,3.27-3.03l0.02-0.24H2531.72z"/>
			<g>
				<polygon class="st1" points="2776.88,1159.58 2776.88,1159.58 2776.88,1159.58 				"/>
			</g>
			<path class="st2" d="M3088.75,1692.17h-557.03c-64.32,0-119.38-45.55-130.98-108.33c-12.63-68.43,23.16-133.99,85.07-155.87l0,0
				c21.4-7.57,37.4-27.75,41.77-52.66c22.14-126.89,127-218.99,249.31-218.99c70.96,0,136.68,30.38,185.07,85.53
				c29.58,33.68,71.35,51,113.8,47.37c20.96-1.71,42.05,0.47,62.91,6.51c76.02,22,131.19,88.43,140.52,169.26
				c6.93,59.92-11.45,119.4-50.46,163.2C3192.48,1668.84,3141.46,1692.17,3088.75,1692.17z M2776.88,1162.86
				c-119.15,0-221.27,89.83-242.87,213.58c-4.78,27.25-22.42,49.35-46.01,57.69l0,0c-58.87,20.81-92.87,83.27-80.83,148.53
				c11.02,59.66,63.4,102.97,124.54,102.97h557.03c50.87,0,100.1-22.52,135.07-61.8c37.78-42.4,55.6-100.03,48.88-158.1
				c-9.02-78.2-62.35-142.46-135.87-163.72c-20.09-5.83-40.49-7.91-60.51-6.28c-45.19,3.72-88.37-14.35-119.28-49.57
				C2909.91,1192.44,2845.93,1162.86,2776.88,1162.86z M2486.9,1431.05h0.08H2486.9z"/>
		</g>
		<g>
			<g>
				<path class="st2" d="M2862.44,1466.78c-0.84,0-1.69-0.32-2.33-0.96c-1.25-1.28-1.25-3.35,0-4.63
					c23.01-22.98,60.43-22.98,83.44,0c1.28,1.28,1.3,3.35,0.03,4.63c-1.28,1.28-3.35,1.28-4.63,0c-20.5-20.44-53.78-20.49-74.18,0
					C2864.13,1466.46,2863.29,1466.78,2862.44,1466.78z"/>
			</g>
			<g>
				<path class="st2" d="M2823.05,1570.4c-25.69,0-49.85-10.01-68-28.16c-1.28-1.28-1.25-3.35,0.03-4.63c1.23-1.28,3.35-1.28,4.63,0
					c16.9,16.92,39.39,26.24,63.34,26.24c23.93,0,46.42-9.32,63.32-26.24c1.28-1.28,3.35-1.28,4.63,0c1.28,1.28,1.3,3.35,0.03,4.63
					C2872.87,1560.39,2848.72,1570.4,2823.05,1570.4z"/>
			</g>
			<g>
				<path class="st2" d="M2783.63,1466.78c-0.84,0-1.69-0.32-2.33-0.96c-20.45-20.46-53.73-20.44-74.18,0
					c-1.28,1.28-3.35,1.28-4.63,0c-1.28-1.28-1.25-3.35,0.03-4.63c23.01-22.98,60.43-22.98,83.44,0c1.28,1.28,1.28,3.35,0,4.63
					C2785.32,1466.46,2784.48,1466.78,2783.63,1466.78z"/>
			</g>
		</g>
	</g>
	<g>
		<path class="st0" d="M841.16,962.83c-54.45-9.94-103.92,15.65-129.42,57.49c-9.39,15.4-25.85,25.36-43.8,23.59
			c-11.21-1.11-23.16,0.18-35.63,4.7c-27.09,9.82-48.1,33.61-53.35,61.94c-9.75,52.71,30.44,98.67,81.38,98.67
			c28.8,0,122.78,0,157.4,0c77.39,0,138.26-70.75,121.46-151.09C929.15,1010.03,889.5,971.66,841.16,962.83z"/>
	</g>
	<g>
		<g>
			<path class="st1" d="M937.14,1168.79c6.73-36.33,33.68-66.86,68.42-79.45c15.99-5.8,31.32-7.45,45.7-6.02
				c23.03,2.28,44.14-10.5,56.18-30.25c27.94-45.83,78.36-76.19,135.96-76.21v-0.27h-76.53c-57.61,0.03-108.03,30.66-135.96,76.49
				c-12.05,19.76-33.15,32.53-56.18,30.25c-14.38-1.42-29.71,0.23-45.7,6.02c-34.74,12.59-61.7,43.11-68.42,79.45
				c-12.51,67.61,39.05,126.56,104.38,126.56h76.53C976.19,1295.36,924.63,1236.4,937.14,1168.79z"/>
			<path class="st3" d="M1273.43,979.33c-69.84-12.75-133.29,20.07-166,73.74c-12.04,19.76-33.15,32.53-56.18,30.25
				c-14.38-1.42-29.71,0.23-45.7,6.02c-34.74,12.59-61.7,43.11-68.42,79.45c-12.51,67.61,39.05,126.56,104.38,126.56h201.89
				c99.26,0,177.33-90.74,155.78-193.8C1386.28,1039.87,1335.43,990.65,1273.43,979.33z"/>
			<path class="st2" d="M1243.4,1298.63h-201.88c-32.64,0-63.36-14.4-84.25-39.53c-20.88-25.1-29.4-58.23-23.35-90.9
				c6.8-36.7,34.48-68.85,70.54-81.93c15.62-5.67,31.47-7.76,47.12-6.21c20.74,2.12,41.03-8.95,53.07-28.69
				c35.39-58.04,101.82-87.55,169.38-75.26l0,0c63.6,11.62,115.19,61.76,128.38,124.78c10.29,49.21-1.62,99.35-32.69,137.58
				C1338.64,1276.7,1292.61,1298.63,1243.4,1298.63z M1041.57,1086.12c-11.62,0-23.31,2.11-34.89,6.31
				c-33.91,12.28-59.94,42.5-66.32,76.97c-5.7,30.74,2.3,61.91,21.95,85.52c19.64,23.62,48.52,37.17,79.22,37.17h201.88
				c47.23,0,91.41-21.05,121.23-57.75c29.82-36.68,41.25-84.84,31.35-132.12c-12.64-60.43-62.13-108.53-123.14-119.67
				c-64.74-11.8-128.66,16.53-162.6,72.21c-13.37,21.92-36.07,34.06-59.31,31.81C1047.82,1086.27,1044.7,1086.12,1041.57,1086.12z"
				/>
		</g>
		<path class="st2" d="M1243.4,1295.36h-201.89c-8.93,0-17.57-1.19-25.86-3.27h-50.67c-30.69,0-59.56-13.55-79.21-37.17
			c-19.64-23.61-27.65-54.78-21.95-85.52c6.38-34.47,32.4-64.69,66.31-76.98c11.58-4.19,23.27-6.3,34.89-6.3
			c3.13,0,6.26,0.15,9.38,0.46c23.35,2.25,45.94-9.89,59.29-31.81c28.57-46.88,78.34-74.89,133.16-74.91h46.57
			c10.77-2.06,21.8-3.4,33.24-3.17v-0.1c0-1.8-1.47-3.27-3.27-3.27h-76.53c-57.12,0.03-108.99,29.21-138.75,78.06
			c-12.01,19.75-32.36,30.82-53.06,28.69c-15.66-1.5-31.52,0.55-47.14,6.2c-36.06,13.09-63.73,45.25-70.53,81.94
			c-6.05,32.67,2.47,65.8,23.35,90.91c20.9,25.12,51.6,39.52,84.24,39.52l278.41-0.01c1.8,0,3.27-1.47,3.27-3.27v-0.18
			C1245.57,1295.19,1244.51,1295.36,1243.4,1295.36z"/>
	</g>
	<g>
		<g>
			<g>
				<path class="st1" d="M2039.49,748.42v-8.81h-68.06c-152.66,0-276.87,124.21-276.87,276.87v554.62
					c0,18.81,15.22,34.03,34.03,34.03c18.81,0,34.03-15.22,34.03-34.03v-554.62c0-115.14,93.68-208.82,208.82-208.82
					c115.14,0,208.82,93.68,208.82,208.82v554.62c0,18.81,15.22,34.03,34.03,34.03s34.03-15.22,34.03-34.03v-554.62
					C2248.31,887.34,2159.3,778.87,2039.49,748.42z"/>
				<path class="st2" d="M2214.28,1608.4c-20.55,0-37.3-16.73-37.3-37.31v-554.61c0-113.34-92.2-205.55-205.55-205.55
					s-205.55,92.2-205.55,205.55v554.61c0,20.58-16.73,37.31-37.3,37.31s-37.3-16.73-37.3-37.31v-554.61
					c0-154.47,125.67-280.15,280.14-280.15h68.06c1.8,0,3.27,1.47,3.27,3.27v6.29c123.07,32.45,208.81,143.35,208.81,270.59v554.61
					C2251.57,1591.67,2234.83,1608.4,2214.28,1608.4z M1971.43,804.39c116.95,0,212.09,95.14,212.09,212.09v554.61
					c0,16.96,13.8,30.76,30.75,30.76s30.75-13.8,30.75-30.76v-554.61c0-125.09-84.84-234.01-206.34-264.89
					c-1.46-0.37-2.47-1.67-2.47-3.17v-5.55h-64.79c-150.86,0-273.6,122.74-273.6,273.61v554.61c0,16.96,13.79,30.76,30.75,30.76
					s30.75-13.8,30.75-30.76v-554.61C1759.34,899.54,1854.48,804.39,1971.43,804.39z"/>
			</g>
			<g>
				<g>
					<path class="st3" d="M2282.34,1605.12c-18.81,0-34.03-15.22-34.03-34.03v-554.62c0-115.14-93.68-208.82-208.82-208.82
						c-115.14,0-208.82,93.68-208.82,208.82v554.62c0,18.81-15.22,34.03-34.03,34.03c-18.81,0-34.03-15.22-34.03-34.03v-554.62
						c0-152.66,124.21-276.87,276.87-276.87s276.87,124.21,276.87,276.87v554.62C2316.37,1589.9,2301.15,1605.12,2282.34,1605.12z"
						/>
					<path class="st2" d="M2282.33,1608.4c-20.55,0-37.3-16.73-37.3-37.31v-554.61c0-113.34-92.2-205.55-205.54-205.55
						c-113.34,0-205.55,92.2-205.55,205.55v554.61c0,20.58-16.73,37.31-37.3,37.31c-20.58,0-37.31-16.73-37.31-37.31v-554.61
						c0-154.47,125.68-280.15,280.15-280.15c154.49,0,280.15,125.68,280.15,280.15v554.61
						C2319.65,1591.67,2302.9,1608.4,2282.33,1608.4z M2039.49,804.39c116.94,0,212.08,95.14,212.08,212.09v554.61
						c0,16.96,13.8,30.76,30.75,30.76c16.97,0,30.78-13.8,30.78-30.76v-554.61c0-150.87-122.75-273.61-273.61-273.61
						c-150.87,0-273.61,122.74-273.61,273.61v554.61c0,16.96,13.8,30.76,30.76,30.76c16.96,0,30.75-13.8,30.75-30.76v-554.61
						C1827.4,899.54,1922.54,804.39,2039.49,804.39z"/>
				</g>
			</g>
		</g>
		<g>
			<path class="st4" d="M1548.15,2199.31h895.19c27.47,0,49.73-22.27,49.73-49.73v-649.15c0-27.47-22.27-49.73-49.73-49.73h-895.19
				c-27.47,0-49.73,22.27-49.73,49.73v649.15C1498.42,2177.05,1520.69,2199.31,1548.15,2199.31z"/>
			<path class="st2" d="M2443.34,2202.59h-895.19c-29.23,0-53-23.77-53-53v-649.15c0-29.23,23.77-53,53-53h895.19
				c29.24,0,53.02,23.77,53.02,53v649.15C2496.36,2178.82,2472.59,2202.59,2443.34,2202.59z M1548.15,1453.98
				c-25.61,0-46.46,20.85-46.46,46.46v649.15c0,25.61,20.85,46.46,46.46,46.46h895.19c25.61,0,46.47-20.85,46.47-46.46v-649.15
				c0-25.61-20.86-46.46-46.47-46.46H1548.15z"/>
		</g>
		<path class="st5" d="M2419.62,1560.32c-10.01,0-17.96,7.43-19.58,16.97h-22.96c-0.24,0-0.38,0.2-0.61,0.25
			c-1.58-14.25-13.22-25.48-27.89-25.48h-56.76c-14.67,0-26.31,11.23-27.89,25.48c-0.22-0.04-0.37-0.25-0.6-0.25h-22.96
			c-1.62-9.54-9.57-16.97-19.58-16.97s-17.96,7.43-19.58,16.97h-156.8c-0.24,0-0.39,0.2-0.61,0.25
			c-1.58-14.25-13.22-25.48-27.89-25.48h-56.76c-14.67,0-26.32,11.23-27.89,25.49c-0.22-0.05-0.37-0.26-0.61-0.26h-22.94
			c-1.62-9.54-9.58-16.97-19.58-16.97s-17.96,7.43-19.58,16.97h-76.41c-1.8,0-3.27,1.47-3.27,3.27c0,1.8,1.47,3.27,3.27,3.27h76.41
			c1.62,9.54,9.58,16.97,19.58,16.97s17.96-7.43,19.58-16.97h22.94c0.24,0,0.39-0.2,0.61-0.26c1.58,14.25,13.22,25.49,27.89,25.49
			h56.76c14.67,0,26.32-11.23,27.89-25.48c0.22,0.05,0.37,0.25,0.61,0.25h156.8c1.62,9.54,9.57,16.97,19.58,16.97
			s17.96-7.43,19.58-16.97h22.96c0.24,0,0.38-0.2,0.6-0.25c1.58,14.25,13.22,25.48,27.89,25.48h56.76
			c14.67,0,26.31-11.23,27.89-25.48c0.22,0.05,0.37,0.25,0.61,0.25h22.96c1.62,9.54,9.57,16.97,19.58,16.97
			c11.17,0,20.25-9.09,20.25-20.25C2439.87,1569.4,2430.79,1560.32,2419.62,1560.32z M1888.12,1594.26c-7.55,0-13.7-6.15-13.7-13.7
			c0-7.55,6.15-13.7,13.7-13.7s13.7,6.15,13.7,13.7C1901.83,1588.12,1895.68,1594.26,1888.12,1594.26z M2220.8,1594.26
			c-7.57,0-13.7-6.15-13.7-13.7c0-7.55,6.14-13.7,13.7-13.7c7.57,0,13.7,6.15,13.7,13.7
			C2234.5,1588.12,2228.36,1594.26,2220.8,1594.26z M2419.62,1594.26c-7.57,0-13.7-6.15-13.7-13.7c0-7.55,6.14-13.7,13.7-13.7
			c7.57,0,13.7,6.15,13.7,13.7C2433.32,1588.12,2427.19,1594.26,2419.62,1594.26z"/>
		<path class="st2" d="M1763.86,1447.43h-230.34c-29.23,0-53,23.77-53,53v649.15c0,29.23,23.77,53,53,53h230.34
			c29.23,0,53-23.77,53-53v-649.15C1816.87,1471.2,1793.1,1447.43,1763.86,1447.43z"/>
		<g>
			<path class="st4" d="M1578.05,1567.4c-11.16,0-20.23-9.09-20.23-20.25s9.07-20.23,20.23-20.23s20.25,9.07,20.25,20.23
				S1589.21,1567.4,1578.05,1567.4z M1578.05,1533.46c-7.55,0-13.69,6.14-13.69,13.69c0,7.55,6.14,13.7,13.69,13.7
				s13.7-6.15,13.7-13.7C1591.75,1539.6,1585.6,1533.46,1578.05,1533.46z"/>
		</g>
		<g>
			<path class="st4" d="M1578.05,1533.46c-1.8,0-3.27-1.47-3.27-3.27v-79.49c0-1.8,1.47-3.27,3.27-3.27s3.27,1.47,3.27,3.27v79.49
				C1581.32,1531.99,1579.85,1533.46,1578.05,1533.46z"/>
		</g>
		<g>
			<path class="st4" d="M1590.28,1622.79c-0.84,0-1.67-0.32-2.31-0.96c-1.28-1.28-1.28-3.35,0-4.63l54.69-54.7v-111.8
				c0-1.8,1.47-3.27,3.27-3.27s3.27,1.47,3.27,3.27v113.15c0,0.87-0.35,1.7-0.96,2.31l-55.65,55.66
				C1591.96,1622.47,1591.13,1622.79,1590.28,1622.79z"/>
		</g>
		<g>
			<path class="st4" d="M1578.05,1651.98c-11.16,0-20.23-9.09-20.23-20.25s9.07-20.25,20.23-20.25s20.25,9.09,20.25,20.25
				S1589.21,1651.98,1578.05,1651.98z M1578.05,1618.04c-7.55,0-13.69,6.15-13.69,13.7s6.14,13.7,13.69,13.7s13.7-6.15,13.7-13.7
				S1585.6,1618.04,1578.05,1618.04z"/>
		</g>
		<g>
			<path class="st4" d="M1590.28,1707.82c-0.83,0-1.67-0.32-2.31-0.96c-1.28-1.27-1.28-3.35,0-4.63l123.53-123.99
				c0.61-0.61,1.44-0.96,2.31-0.96h99.78c1.8,0,3.27,1.47,3.27,3.27c0,1.8-1.47,3.27-3.27,3.27h-98.43l-122.57,123.03
				C1591.96,1707.51,1591.13,1707.82,1590.28,1707.82z"/>
		</g>
		<g>
			<path class="st4" d="M1578.05,1736.57c-11.16,0-20.23-9.09-20.23-20.25s9.07-20.25,20.23-20.25s20.25,9.09,20.25,20.25
				S1589.21,1736.57,1578.05,1736.57z M1578.05,1702.62c-7.55,0-13.69,6.15-13.69,13.7c0,7.55,6.14,13.7,13.69,13.7
				s13.7-6.15,13.7-13.7C1591.75,1708.77,1585.6,1702.62,1578.05,1702.62z"/>
		</g>
		<g>
			<path class="st4" d="M1757.93,2047.59c-1.8,0-3.27-1.47-3.27-3.27v-408.09c0-0.87,0.35-1.7,0.96-2.31l55.66-55.66
				c1.28-1.28,3.35-1.28,4.63,0c1.28,1.28,1.28,3.35,0,4.63l-54.7,54.7v406.74C1761.21,2046.12,1759.74,2047.59,1757.93,2047.59z"/>
		</g>
		<g>
			<path class="st2" d="M2379.81,1982.09c-14.36,23.56-39.54,38.79-67,36.08c-17.15-1.7-35.43,0.27-54.5,7.18
				c-41.43,15.01-73.58,51.42-81.6,94.75c-5.3,28.63-0.82,55.87,10.46,79.21h256.17c27.47,0,49.73-22.27,49.73-49.73v-252.05
				C2445.33,1910.26,2404.92,1940.89,2379.81,1982.09z"/>
		</g>
	</g>
	<g>
		<path class="st1" d="M2503.58,2271.04c-77.91,0-139.39-70.3-124.47-150.93c8.02-43.33,40.17-79.74,81.6-94.75
			c19.07-6.91,37.35-8.88,54.5-7.18c27.46,2.71,52.64-12.52,67-36.08c33.31-54.66,93.44-90.86,162.14-90.89v-0.33h-50.69
			c-68.7,0.03-128.83,36.56-162.15,91.21c-14.36,23.56-39.54,38.79-66.99,36.08c-17.15-1.7-35.43,0.27-54.5,7.18
			c-41.44,15.01-73.59,51.41-81.6,94.75c-14.92,80.63,46.57,150.93,124.47,150.93h240.77c0.01,0,0.02,0,0.03,0H2503.58z"/>
		<path class="st3" d="M2780.16,1894.16c-83.29-15.21-158.95,23.94-197.96,87.94c-14.36,23.56-39.54,38.79-67,36.08
			c-17.15-1.7-35.43,0.27-54.5,7.18c-41.43,15.02-73.58,51.42-81.6,94.75c-14.92,80.63,46.57,150.93,124.47,150.93h240.77
			c118.38,0,211.48-108.22,185.78-231.12C2914.74,1966.35,2854.1,1907.66,2780.16,1894.16z"/>
		<path class="st2" d="M2744.34,2271.04h-240.77c-9.85,0-19.43-1.14-28.64-3.27h-22.06c-36.78,0-71.4-16.23-94.94-44.56
			c-23.54-28.3-33.13-65.67-26.3-102.52c7.64-41.32,38.86-77.54,79.5-92.27c13.88-5.02,27.91-7.55,41.82-7.55
			c3.76,0,7.49,0.18,11.22,0.55c2.97,0.29,5.91,0.3,8.84,0.2c6.34-1.63,12.56-2.69,18.68-3.3c17.02-5.48,32.18-17.44,42.59-34.53
			c34.2-56.11,93.76-89.62,159.36-89.65h17.95c11.71-2.04,23.66-3.32,36.01-3.12v-0.15c0-1.8-1.46-3.27-3.27-3.27h-50.69
			c-67.89,0.03-129.55,34.71-164.93,92.79c-14.49,23.76-39.11,37.08-63.88,34.51c-18.66-1.81-37.37,0.65-55.96,7.36
			c-42.77,15.5-75.61,53.67-83.69,97.23c-7.18,38.78,2.91,78.11,27.71,107.91c24.8,29.81,61.25,46.91,99.98,46.91l291.46-0.03
			c1.81,0,3.27-1.46,3.27-3.27v-0.17C2746.52,2270.87,2745.45,2271.04,2744.34,2271.04z"/>
		<path class="st2" d="M2744.34,2274.32h-240.77c-38.73,0-75.18-17.1-99.98-46.91s-34.89-69.13-27.71-107.9
			c8.08-43.56,40.93-81.74,83.69-97.24c18.56-6.71,37.35-9.18,55.96-7.36c24.8,2.57,49.39-10.75,63.88-34.51
			c42-68.99,120.89-104.21,201.33-89.47l0,0c75.59,13.82,136.91,73.42,152.58,148.33c12.24,58.5-1.92,118.11-38.86,163.56
			C2857.56,2248.24,2802.83,2274.32,2744.34,2274.32z M2503.65,2020.88c-13.91,0-27.94,2.53-41.82,7.55
			c-40.64,14.72-71.86,50.95-79.5,92.28c-6.83,36.85,2.76,74.21,26.3,102.51c23.54,28.32,58.15,44.56,94.94,44.56h240.77
			c56.52,0,109.38-25.18,145.04-69.08c35.69-43.9,49.36-101.53,37.55-158.1c-15.13-72.32-74.36-129.88-147.37-143.21
			c-77.66-14.17-153.94,19.76-194.58,86.43c-15.77,25.93-42.41,40.39-70.12,37.63C2511.14,2021.06,2507.4,2020.88,2503.65,2020.88z"
			/>
	</g>
	<g>
		<g>
			<path class="st3" d="M860.22,2104.72c29.4-10.4,50.57-38.37,56.21-70.68c27.53-157.66,158.21-277.08,315.26-277.08
				c92.56,0,175.64,41.69,233.97,108.15c38.67,44.06,92.68,66.79,149.27,62.1c25.2-2.09,51.66,0.25,79.07,8.18
				c94.61,27.36,165.09,110.07,177.04,213.29c17.91,154.77-97.05,286.38-239.83,286.38H917.64c-77.37,0-148.83-54.84-163.69-135.35
				C737.5,2210.58,787.13,2130.56,860.22,2104.72z"/>
			<path class="st2" d="M917.63,2435.05c-10.66,0-21.15-1.26-31.46-3.27h-67c-78.8,0-146.28-55.8-160.47-132.67
				c-15.49-84.02,28.31-164.48,104.14-191.32c29.96-10.58,52.33-38.64,58.35-73.2c27.76-158.97,159-274.36,312.04-274.36h56.09
				c13.9-1.94,27.98-3.28,42.37-3.28c1.09,0,2.14,0.17,3.23,0.18c0.05-0.89-0.24-1.76-0.83-2.4c-0.63-0.66-1.5-1.05-2.4-1.05h-98.45
				c-156.24,0-290.17,117.66-318.48,279.78c-5.62,32.23-26.34,58.36-54.08,68.16c-78.9,27.9-124.49,111.47-108.41,198.66
				c14.76,79.99,84.96,138.04,166.91,138.04h361.06c1.71,0,3.13-1.33,3.26-3.02l0.02-0.26H917.63z"/>
			<path class="st2" d="M1631.21,2438.33H917.64c-81.97,0-152.16-58.05-166.91-138.04c-16.09-87.19,29.5-170.75,108.4-198.66l0,0
				c27.74-9.8,48.45-35.93,54.08-68.16c28.32-162.12,162.26-279.78,318.48-279.78c90.63,0,174.59,38.8,236.43,109.25
				c38.06,43.35,91.58,65.62,146.55,61.01c26.64-2.17,53.6,0.59,80.24,8.3c97.04,28.07,167.45,112.87,179.37,216.07
				c8.86,76.5-14.63,152.44-64.44,208.35C1763.6,2408.57,1698.49,2438.33,1631.21,2438.33z M861.3,2107.79
				c-75.84,26.84-119.63,107.3-104.13,191.32c14.17,76.87,81.66,132.67,160.47,132.67h713.57c65.41,0,128.75-28.96,173.75-79.47
				c48.57-54.53,71.47-128.61,62.83-203.26c-11.63-100.56-80.2-183.19-174.69-210.52c-25.87-7.49-52.01-10.16-77.89-8.07
				c-56.97,4.78-112.58-18.29-152-63.2c-60.58-69.02-142.81-107.03-231.52-107.03c-153.03,0-284.27,115.39-312.04,274.36
				C913.63,2069.15,891.26,2097.21,861.3,2107.79L861.3,2107.79z"/>
		</g>
		<g>
			<g>
				<path class="st2" d="M1290.83,2276.82c-27.63,0-53.62-10.76-73.16-30.32c-1.28-1.28-1.28-3.35,0-4.63
					c1.28-1.28,3.35-1.25,4.63,0.03c18.3,18.3,42.64,28.37,68.53,28.37s50.23-10.07,68.53-28.37c1.28-1.28,3.35-1.3,4.63-0.03
					c1.28,1.28,1.28,3.35,0,4.63C1344.45,2266.06,1318.46,2276.82,1290.83,2276.82z"/>
			</g>
			<g>
				<circle class="st2" cx="1443.01" cy="2204.7" r="15.31"/>
			</g>
			<g>
				<circle class="st2" cx="1138.65" cy="2204.7" r="15.31"/>
			</g>
		</g>
	</g>
	<rect x="1269.66" y="2435.05" class="st4" width="62.64" height="27.38"/>
	<g>
		<rect x="1282.19" y="2462.42" class="st3" width="37.59" height="52.22"/>
		<path class="st2" d="M1332.3,2431.78h-62.64c-1.8,0-3.27,1.46-3.27,3.27v27.38c0,1.81,1.47,3.27,3.27,3.27h9.25v48.95
			c0,1.81,1.47,3.27,3.27,3.27h37.59c1.8,0,3.27-1.46,3.27-3.27v-48.95h9.25c1.8,0,3.27-1.46,3.27-3.27v-27.38
			C1335.58,2433.24,1334.11,2431.78,1332.3,2431.78z M1316.51,2511.39h-31.05v-45.68h31.05V2511.39z M1329.03,2459.16h-9.25h-37.59
			h-9.25v-20.83h56.1V2459.16z"/>
	</g>
	<rect x="2598.29" y="2271.04" class="st4" width="62.64" height="27.38"/>
	<g>
		<rect x="2610.82" y="2298.42" class="st3" width="37.59" height="52.22"/>
		<path class="st2" d="M2660.93,2267.77h-62.65c-1.81,0-3.27,1.46-3.27,3.27v27.38c0,1.81,1.46,3.27,3.27,3.27h9.25v48.95
			c0,1.81,1.46,3.27,3.27,3.27h37.6c1.81,0,3.27-1.46,3.27-3.27v-48.95h9.25c1.81,0,3.27-1.46,3.27-3.27v-27.38
			C2664.2,2269.23,2662.75,2267.77,2660.93,2267.77z M2645.14,2347.38h-31.06v-45.68h31.06V2347.38z M2657.66,2295.15h-9.25h-37.6
			h-9.25v-20.83h56.11V2295.15z"/>
	</g>
	<g>
		<path class="st2" d="M1787.92,3038.61h-50.58c-138.32,0-268.25-69.38-339.11-181.06c-65.76-103.66-100.51-222.22-100.51-342.9
			c0-1.81,1.47-3.27,3.27-3.27c1.8,0,3.27,1.46,3.27,3.27c0,119.43,34.41,236.79,99.49,339.37
			c69.67,109.82,197.5,178.04,333.59,178.04h50.58c277.74,0,535.56-117.59,707.39-322.6c84.51-100.79,131.03-226.97,131.03-355.29
			c0-1.81,1.46-3.27,3.27-3.27s3.27,1.46,3.27,3.27c0,129.86-47.09,257.52-132.57,359.49
			C2327.26,2920.18,2067.59,3038.61,1787.92,3038.61z"/>
	</g>
	<path class="st0" d="M3561.52,2002.23c-10.06-48.09-49.7-86.47-98.04-95.29c-54.45-9.94-103.92,15.65-129.42,57.49
		c-9.39,15.4-25.85,25.36-43.8,23.59c-11.21-1.11-23.16,0.18-35.63,4.69c-27.08,9.82-48.1,33.61-53.35,61.94
		c-9.76,52.71,30.44,98.67,81.38,98.67c19.11,0,66.87,0,107,0v14.83h9.29c-3.23,176.92-22.7,312.96-66.77,469.59
		c-20.94,74.39-76.25,160.2-163.91,160.2c-1.25,0-2.51-0.03-3.78-0.05c-55.29,0-106.37-27.61-136.63-73.88
		c-28.16-43.05-43.3-92.65-45.13-143.85h9.23v-14.83c43.72,0,101.51,0,123.4,0c58.88,0,105.78-54.28,98.4-118.1
		c-4.92-42.57-33.99-76.68-73.01-87.96c-11.3-3.27-22.22-4.23-32.61-3.37c-23.34,1.93-45.61-7.44-61.56-25.61
		c-24.05-27.41-58.31-44.6-96.49-44.6c-64.77,0-118.66,49.25-130.01,114.27c-2.33,13.32-11.06,24.86-23.19,29.15
		c-30.14,10.66-50.61,43.65-43.82,80.41c6.13,33.2,35.6,55.82,67.5,55.82h129.52c4.24,0,9.48,0,15.43,0v14.83h10.3
		c1.82,52.5,17.71,103.28,46.57,147.43c31.47,48.11,84.59,76.84,142,76.84c1.35,0.03,2.68,0.05,4.01,0.05
		c91.18,0,148.52-88.37,170.07-164.96c44.27-157.26,63.79-293.81,67.03-471.38h10.61v-14.83c9.43,0,17.69,0,23.96,0
		C3517.45,2153.33,3578.32,2082.58,3561.52,2002.23z"/>
	<path class="st1" d="M2908.12,2687.79v-20.34c9.55-1.62,16.97-9.57,16.97-19.58c0-11.17-9.07-20.25-20.25-20.25
		s-20.25,9.07-20.25,20.25c0,10.01,7.42,17.96,16.97,19.58v20.34c-15.9,1.72-28.5,14.76-28.5,31.11v82.95
		c0,16.35,12.6,29.39,28.5,31.11v20.32c-9.55,1.62-16.97,9.57-16.97,19.58c0,11.17,9.07,20.25,20.25,20.25s20.25-9.07,20.25-20.25
		c0-10.01-7.42-17.96-16.97-19.58v-20.32c15.9-1.72,28.5-14.76,28.5-31.11v-82.95C2936.63,2702.55,2924.03,2689.51,2908.12,2687.79z
		 M2891.15,2647.86c0-7.57,6.14-13.7,13.7-13.7c7.57,0,13.7,6.14,13.7,13.7c0,7.57-6.14,13.7-13.7,13.7
		C2897.28,2661.57,2891.15,2655.43,2891.15,2647.86z M2918.55,2872.87c0,7.57-6.14,13.7-13.7,13.7c-7.57,0-13.7-6.14-13.7-13.7
		c0-7.57,6.14-13.7,13.7-13.7C2912.42,2859.16,2918.55,2865.3,2918.55,2872.87z M2930.08,2801.85c0,13.91-11.32,25.23-25.23,25.23
		s-25.23-11.32-25.23-25.23v-82.95c0-13.91,11.32-25.23,25.23-25.23s25.23,11.32,25.23,25.23V2801.85z"/>
	<path class="st1" d="M3092.17,1821.91v-20.35c9.55-1.62,16.97-9.58,16.97-19.58c0-11.16-9.07-20.25-20.25-20.25
		c-11.17,0-20.25,9.09-20.25,20.25c0,10,7.42,17.96,16.97,19.58v20.35c-15.9,1.72-28.5,14.75-28.5,31.11v82.93
		c0,16.36,12.6,29.39,28.5,31.11v20.35c-9.55,1.62-16.97,9.58-16.97,19.58c0,11.16,9.07,20.25,20.25,20.25
		c11.17,0,20.25-9.09,20.25-20.25c0-10-7.42-17.96-16.97-19.58v-20.35c15.9-1.72,28.5-14.75,28.5-31.11v-82.93
		C3120.68,1836.66,3108.08,1823.63,3092.17,1821.91z M3075.2,1781.98c0-7.55,6.14-13.7,13.7-13.7c7.57,0,13.7,6.15,13.7,13.7
		c0,7.55-6.14,13.7-13.7,13.7C3081.33,1795.68,3075.2,1789.54,3075.2,1781.98z M3102.6,2006.98c0,7.55-6.14,13.7-13.7,13.7
		c-7.57,0-13.7-6.15-13.7-13.7c0-7.55,6.14-13.7,13.7-13.7C3096.47,1993.28,3102.6,1999.43,3102.6,2006.98z M3114.13,1935.95
		c0,13.91-11.32,25.23-25.23,25.23c-13.91,0-25.23-11.32-25.23-25.23v-82.93c0-13.91,11.32-25.23,25.23-25.23
		c13.91,0,25.23,11.32,25.23,25.23V1935.95z"/>
	<g>
		<path class="st1" d="M2801.22,3019.62v-20.34c9.55-1.62,16.97-9.57,16.97-19.58c0-11.17-9.07-20.25-20.25-20.25
			c-11.17,0-20.25,9.07-20.25,20.25c0,10.01,7.42,17.96,16.97,19.58v20.34c-15.9,1.72-28.5,14.76-28.5,31.11v150.97
			c0,16.35,12.6,29.39,28.5,31.11v20.34c-9.55,1.62-16.97,9.57-16.97,19.58c0,11.17,9.07,20.25,20.25,20.25
			c11.17,0,20.25-9.07,20.25-20.25c0-10.01-7.42-17.96-16.97-19.58v-20.34c15.9-1.72,28.5-14.76,28.5-31.11v-150.97
			C2829.72,3034.38,2817.12,3021.34,2801.22,3019.62z M2784.25,2979.69c0-7.57,6.14-13.7,13.7-13.7c7.57,0,13.7,6.14,13.7,13.7
			c0,7.57-6.14,13.7-13.7,13.7C2790.38,2993.39,2784.25,2987.26,2784.25,2979.69z M2811.65,3272.74c0,7.57-6.14,13.7-13.7,13.7
			c-7.57,0-13.7-6.14-13.7-13.7c0-7.57,6.14-13.7,13.7-13.7C2805.51,3259.04,2811.65,3265.17,2811.65,3272.74z M2823.18,3201.7
			c0,13.91-11.32,25.23-25.23,25.23c-13.91,0-25.23-11.32-25.23-25.23v-150.97c0-13.91,11.32-25.23,25.23-25.23
			c13.91,0,25.23,11.32,25.23,25.23V3201.7z"/>
	</g>
	<path class="st1" d="M1102.94,2650.57v-20.32c9.54-1.62,16.96-9.57,16.96-19.58c0-11.17-9.07-20.25-20.23-20.25
		s-20.25,9.07-20.25,20.25c0,10.01,7.43,17.96,16.97,19.58v20.32c-15.91,1.72-28.5,14.76-28.5,31.11v151
		c0,16.35,12.59,29.39,28.5,31.11v20.35c-9.54,1.62-16.97,9.57-16.97,19.58c0,11.17,9.09,20.25,20.25,20.25s20.23-9.07,20.23-20.25
		c0-10.01-7.42-17.96-16.96-19.58v-20.35c15.91-1.72,28.5-14.76,28.5-31.11v-151C1131.45,2665.33,1118.86,2652.29,1102.94,2650.57z
		 M1085.97,2610.67c0-7.57,6.15-13.7,13.7-13.7c7.55,0,13.69,6.14,13.69,13.7c0,7.57-6.14,13.7-13.69,13.7
		C1092.12,2624.37,1085.97,2618.24,1085.97,2610.67z M1113.36,2903.72c0,7.57-6.14,13.7-13.69,13.7c-7.55,0-13.7-6.14-13.7-13.7
		c0-7.57,6.15-13.7,13.7-13.7C1107.23,2890.02,1113.36,2896.15,1113.36,2903.72z M1124.9,2832.68c0,13.91-11.32,25.23-25.23,25.23
		c-13.91,0-25.23-11.32-25.23-25.23v-151c0-13.91,11.32-25.23,25.23-25.23c13.91,0,25.23,11.32,25.23,25.23V2832.68z"/>
	<g>
		<path class="st1" d="M2696.03,3291.53c-1.81,0-3.27-1.46-3.27-3.27v-181.9c0-1.81,1.46-3.27,3.27-3.27s3.27,1.46,3.27,3.27v181.9
			C2699.3,3290.07,2697.84,3291.53,2696.03,3291.53z"/>
	</g>
	<g>
		<path class="st1" d="M3186.04,1904.39c-1.81,0-3.27-1.47-3.27-3.27v-181.89c0-1.8,1.46-3.27,3.27-3.27s3.27,1.47,3.27,3.27v181.89
			C3189.31,1902.92,3187.85,1904.39,3186.04,1904.39z"/>
	</g>
	<g>
		<path class="st1" d="M987.76,3024.81c-1.8,0-3.27-1.46-3.27-3.27v-113.83c0-1.81,1.47-3.27,3.27-3.27c1.8,0,3.27,1.46,3.27,3.27
			v113.83C991.03,3023.35,989.56,3024.81,987.76,3024.81z"/>
	</g>
	<g>
		<path class="st1" d="M2946.47,2333.75c-1.81,0-3.27-1.46-3.27-3.27v-113.86c0-1.81,1.46-3.27,3.27-3.27s3.27,1.46,3.27,3.27
			v113.86C2949.74,2332.29,2948.28,2333.75,2946.47,2333.75z"/>
	</g>
	<g>
		<path class="st1" d="M3088.9,2203.97c-1.81,0-3.27-1.47-3.27-3.27v-113.84c0-1.8,1.46-3.27,3.27-3.27s3.27,1.47,3.27,3.27v113.84
			C3092.17,2202.5,3090.72,2203.97,3088.9,2203.97z"/>
	</g>
	<path class="st1" d="M2826.32,1829.57v-72.61c0-1.8-1.46-3.27-3.27-3.27s-3.27,1.47-3.27,3.27v72.61
		c-9.55,1.62-16.97,9.58-16.97,19.58c0,11.16,9.07,20.25,20.25,20.25c11.15,0,20.22-9.09,20.22-20.25
		C2843.27,1839.15,2835.85,1831.19,2826.32,1829.57z M2823.05,1862.85c-7.57,0-13.7-6.15-13.7-13.7s6.14-13.7,13.7-13.7
		c7.54,0,13.68,6.15,13.68,13.7S2830.59,1862.85,2823.05,1862.85z"/>
	<g>
		<path class="st1" d="M2726.12,2837.64c-11.17,0-20.25-9.07-20.25-20.25s9.07-20.25,20.25-20.25s20.25,9.07,20.25,20.25
			S2737.29,2837.64,2726.12,2837.64z M2726.12,2803.69c-7.57,0-13.7,6.14-13.7,13.7c0,7.57,6.14,13.7,13.7,13.7
			c7.57,0,13.7-6.14,13.7-13.7C2739.82,2809.83,2733.68,2803.69,2726.12,2803.69z"/>
	</g>
	<g>
		<path class="st1" d="M3268.63,2274.32c-11.17,0-20.25-9.07-20.25-20.25c0-11.17,9.07-20.25,20.25-20.25s20.25,9.07,20.25,20.25
			C3288.88,2265.24,3279.8,2274.32,3268.63,2274.32z M3268.63,2240.37c-7.57,0-13.7,6.14-13.7,13.7c0,7.57,6.14,13.7,13.7,13.7
			c7.57,0,13.7-6.14,13.7-13.7C3282.33,2246.51,3276.2,2240.37,3268.63,2240.37z"/>
	</g>
	<g>
		<path class="st1" d="M1243.51,3042.47c-11.16,0-20.25-9.07-20.25-20.25s9.09-20.25,20.25-20.25s20.25,9.07,20.25,20.25
			S1254.67,3042.47,1243.51,3042.47z M1243.51,3008.53c-7.55,0-13.7,6.14-13.7,13.7s6.15,13.7,13.7,13.7c7.55,0,13.7-6.14,13.7-13.7
			S1251.07,3008.53,1243.51,3008.53z"/>
	</g>
	<g>
		<path class="st1" d="M897.91,2559.06c-11.16,0-20.25-9.07-20.25-20.25c0-11.17,9.09-20.25,20.25-20.25s20.25,9.07,20.25,20.25
			C918.15,2549.98,909.06,2559.06,897.91,2559.06z M897.91,2525.11c-7.55,0-13.7,6.14-13.7,13.7c0,7.57,6.15,13.7,13.7,13.7
			c7.55,0,13.7-6.14,13.7-13.7C911.61,2531.25,905.46,2525.11,897.91,2525.11z"/>
	</g>
	<g>
		<path class="st1" d="M2587.49,1788.68c-11.17,0-20.25-9.09-20.25-20.25s9.07-20.25,20.25-20.25c11.17,0,20.25,9.09,20.25,20.25
			S2598.66,1788.68,2587.49,1788.68z M2587.49,1754.73c-7.57,0-13.7,6.15-13.7,13.7s6.14,13.7,13.7,13.7c7.57,0,13.7-6.15,13.7-13.7
			S2595.06,1754.73,2587.49,1754.73z"/>
	</g>
	<g>
		<g>
			<path class="st2" d="M2164.57,1701.17c-3.37,0-6.55,0.77-9.84,1.14c51.73,5.76,92.31,55.17,92.31,115.99
				c0,60.83-40.58,110.24-92.31,115.99c3.29,0.37,6.47,1.14,9.84,1.14c56.42,0,102.15-52.44,102.15-117.13
				C2266.71,1753.61,2220.98,1701.17,2164.57,1701.17z"/>
		</g>
		<g>
			<path class="st6" d="M2164.56,1660.16c-77.6,0-140.72,70.95-140.72,158.14c0,87.2,63.12,158.14,140.72,158.14
				c77.6,0,140.72-70.95,140.72-158.14C2305.27,1731.1,2242.16,1660.16,2164.56,1660.16z M2164.57,1935.43
				c-56.42,0-102.15-52.44-102.15-117.13c0-64.69,45.73-117.13,102.15-117.13c56.42,0,102.15,52.44,102.15,117.13
				C2266.71,1882.99,2220.98,1935.43,2164.57,1935.43z"/>
			<path class="st2" d="M2164.56,1979.72c-79.4,0-143.99-72.41-143.99-161.41c0-89.01,64.6-161.42,143.99-161.42
				c79.4,0,143.99,72.41,143.99,161.42C2308.55,1907.32,2243.96,1979.72,2164.56,1979.72z M2164.56,1663.44
				c-75.79,0-137.45,69.48-137.45,154.87c0,85.39,61.66,154.87,137.45,154.87c75.79,0,137.45-69.48,137.45-154.87
				C2302.01,1732.91,2240.35,1663.44,2164.56,1663.44z M2164.56,1938.71c-58.13,0-105.42-54.01-105.42-120.4
				c0-66.4,47.29-120.41,105.42-120.41c58.13,0,105.42,54.01,105.42,120.41C2269.98,1884.69,2222.69,1938.71,2164.56,1938.71z
				 M2164.56,1704.44c-54.53,0-98.88,51.09-98.88,113.87c0,62.78,44.35,113.86,98.88,113.86c54.52,0,98.88-51.07,98.88-113.86
				C2263.43,1755.52,2219.08,1704.44,2164.56,1704.44z"/>
		</g>
		<g>
			<path class="st2" d="M2145,1887.28L2145,1887.28c-10.12,0-18.33-8.21-18.33-18.33v-101.29c0-10.12,8.21-18.33,18.33-18.33l0,0
				c10.12,0,18.33,8.21,18.33,18.33v101.29C2163.33,1879.07,2155.13,1887.28,2145,1887.28z"/>
		</g>
	</g>
</g>
</svg>
