<svg id="Layer_3" enable-background="new 0 0 64 64" height="512" viewBox="0 0 64 64" width="512" xmlns="http://www.w3.org/2000/svg"><g><path d="m62.882 45.528c-.174-.325-.513-.528-.882-.528-1.654 0-3-1.346-3-3v-1c0-4.411-3.589-8-8-8s-8 3.589-8 8v1c0 1.654-1.346 3-3 3-.369 0-.708.203-.882.528s-.155.72.05 1.026c1.239 1.858 3.198 3.066 5.374 3.367-2.112 1.207-3.542 3.477-3.542 6.079v6c0 .552.448 1 1 1h18c.552 0 1-.448 1-1v-6c0-2.602-1.43-4.872-3.542-6.079 2.176-.301 4.135-1.508 5.374-3.367.205-.306.224-.7.05-1.026zm-11.882 5.472h3l-1.108 1.478-1.185-1.185c-.195-.195-.451-.293-.707-.293s-.512.098-.707.293l-1.185 1.185-1.108-1.478zm4-6c0 2.206-1.794 4-4 4s-4-1.794-4-4v-2c1.634 0 3.087-.788 4-2.003.913 1.215 2.366 2.003 4 2.003zm4 11v5h-2v-6h-2v6h-8v-6h-2v6h-2v-5c0-1.993 1.18-3.703 2.871-4.506l2.329 3.106c.174.232.44.377.729.397.288.02.573-.085.778-.291l1.293-1.292 1.293 1.293c.188.189.443.293.707.293.023 0 .047-.001.071-.002.289-.021.555-.166.729-.397l2.329-3.106c1.691.802 2.871 2.512 2.871 4.505zm-2.605-8h-.206c.512-.884.811-1.907.811-3v-3c0-.552-.448-1-1-1h-1c-1.654 0-3-1.346-3-3 0-.552-.448-1-1-1s-1 .448-1 1c0 1.654-1.346 3-3 3h-1c-.552 0-1 .448-1 1v3c0 1.093.299 2.116.812 3h-.206c-1.384 0-2.696-.495-3.721-1.369 1.825-.745 3.115-2.541 3.115-4.631v-1c0-3.309 2.691-6 6-6s6 2.691 6 6v1c0 2.09 1.29 3.886 3.115 4.631-1.024.874-2.337 1.369-3.72 1.369z"/><path d="m32 27c1.103 0 2 .897 2 2h2c0-1.858-1.28-3.411-3-3.858v-2.142h-2v2.142c-1.72.447-3 2-3 3.858 0 2.206 1.794 4 4 4 1.103 0 2 .897 2 2s-.897 2-2 2-2-.897-2-2h-2c0 1.858 1.28 3.411 3 3.858v2.142h2v-2.142c1.72-.447 3-2 3-3.858 0-2.206-1.794-4-4-4-1.103 0-2-.897-2-2s.897-2 2-2z"/><path d="m21 30v-6c0-3.401-2.44-6.241-5.66-6.868.576-.605 1.025-1.329 1.31-2.132h1.35c1.654 0 3-1.346 3-3 0-1.302-.839-2.402-2-2.816v-.184c0-4.411-3.589-8-8-8s-8 3.589-8 8v.184c-1.161.414-2 1.514-2 2.816 0 1.654 1.346 3 3 3h1.35c.285.803.734 1.527 1.31 2.132-3.22.627-5.66 3.467-5.66 6.868v6c0 .552.448 1 1 1h18c.552 0 1-.448 1-1zm-14-17v-2h3c1.634 0 3.087-.788 4-2.003.283.377.624.707 1 .991v3.012c0 2.206-1.794 4-4 4s-4-1.794-4-4zm6 6c0 1.103-.897 2-2 2s-2-.897-2-2zm5-6h-1v-2h1c.551 0 1 .449 1 1s-.449 1-1 1zm-7-10c3.251 0 5.906 2.599 5.998 5.828-1.163-.413-1.998-1.525-1.998-2.828 0-.552-.448-1-1-1s-1 .448-1 1c0 1.654-1.346 3-3 3h-5c0-3.309 2.691-6 6-6zm-7 10c-.551 0-1-.449-1-1s.449-1 1-1h1v2zm15 16h-2v-6h-2v6h-8v-6h-2v6h-2v-5c0-2.418 1.726-4.439 4.01-4.9.055 2.159 1.819 3.9 3.99 3.9s3.935-1.741 3.99-3.9c2.284.461 4.01 2.482 4.01 4.9z"/><path d="m31.293 12.707 1.414-1.414-2.293-2.293h3.586c11.58 0 21 9.42 21 21h2c0-12.682-10.318-23-23-23h-3.586l2.293-2.293-1.414-1.414-4 4c-.391.391-.391 1.023 0 1.414z"/><path d="m32.707 51.293-1.414 1.414 2.293 2.293h-3.586c-11.58 0-21-9.42-21-21h-2c0 12.682 10.318 23 23 23h3.586l-2.293 2.293 1.414 1.414 4-4c.391-.391.391-1.023 0-1.414z"/></g></svg>